<?xml version="1.0" encoding="utf-8"?>
<!-- Generator: Adobe Illustrator 26.0.0, SVG Export Plug-In . SVG Version: 6.00 Build 0)  -->
<svg version="1.1" xmlns="http://www.w3.org/2000/svg" xmlns:xlink="http://www.w3.org/1999/xlink" x="0px" y="0px"
	 viewBox="0 0 32 32" style="enable-background:new 0 0 32 32;" xml:space="preserve">
<style type="text/css">
	.st0{opacity:0.6;}
	.st1{fill:#FFFFFF;}
</style>
<g id="Layer_3">
	<g class="st0">
		<path class="st1" d="M25,10v13c0,0.5-0.5,1-1,1h-7v-8c0-0.5-0.5-1-1-1h-5v-5c0-0.5,0.5-1,1-1h2v2h8V9h2C24.5,9,25,9.5,25,10z"/>
		<path class="st1" d="M21,7h-6c-0.6,0-1,0.4-1,1v1h8V8C22,7.4,21.6,7,21,7z"/>
		<path class="st1" d="M20,7h-4v0c0-0.6,0.4-1,1-1h2C19.6,6,20,6.4,20,7L20,7z"/>
	</g>
</g>
<g id="Layer_2">
	<path class="st1" d="M14,24c-0.6,0-1-0.4-1-1v-4H9c-0.6,0-1-0.4-1-1s0.4-1,1-1h5c0.6,0,1,0.4,1,1v5C15,23.6,14.6,24,14,24z"/>
	<g>
		<path class="st1" d="M6,27c-0.3,0-0.5-0.1-0.7-0.3c-0.4-0.4-0.4-1,0-1.4l7-7c0.4-0.4,1-0.4,1.4,0s0.4,1,0,1.4l-7,7
			C6.5,26.9,6.3,27,6,27z"/>
	</g>
</g>
</svg>
