<?xml version="1.0" encoding="utf-8"?>
<!-- Generator: Adobe Illustrator 26.0.0, SVG Export Plug-In . SVG Version: 6.00 Build 0)  -->
<svg version="1.1" id="Layer_1" xmlns="http://www.w3.org/2000/svg" xmlns:xlink="http://www.w3.org/1999/xlink" x="0px" y="0px"
	 viewBox="0 0 32 32" style="enable-background:new 0 0 32 32;" xml:space="preserve">
<style type="text/css">
	.st0{fill:#FFFFFF;}
</style>
<g>
	<path class="st0" d="M22,11v12h-9V11H22 M22,9h-9c-1.1,0-2,0.9-2,2v12c0,1.1,0.9,2,2,2h9c1.1,0,2-0.9,2-2V11C24,9.9,23.1,9,22,9
		L22,9z"/>
</g>
<g>
	<g>
		<path class="st0" d="M11,20h-1V8h9v1h2V8c0-1.1-0.9-2-2-2h-9C8.9,6,8,6.9,8,8v12c0,1.1,0.9,2,2,2h1V20z"/>
	</g>
</g>
</svg>
