<?xml version="1.0" encoding="utf-8"?>
<!-- Generator: Adobe Illustrator 26.0.0, SVG Export Plug-In . SVG Version: 6.00 Build 0)  -->
<svg version="1.1" xmlns="http://www.w3.org/2000/svg" xmlns:xlink="http://www.w3.org/1999/xlink" x="0px" y="0px"
	 viewBox="0 0 32 32" style="enable-background:new 0 0 32 32;" xml:space="preserve">
<style type="text/css">
	.st0{display:none;}
	.st1{display:inline;}
	.st2{fill:#FFFFFF;}
</style>
<g id="Layer_2" class="st0">
	<path class="st1" d="M23,12v11c0,1.1-0.9,2-2,2H11c-1.1,0-2-0.9-2-2V12h1v11c0,0.5,0.5,1,1,1h10c0.5,0,1-0.5,1-1V12H23z"/>
	<rect x="13" y="14" class="st1" width="1" height="7"/>
	<rect x="18" y="14" class="st1" width="1" height="7"/>
	<rect x="7" y="10" class="st1" width="18" height="1"/>
	<path class="st1" d="M19,8v2h-1V8h-4v2h-1V8c0-0.5,0.5-1,1-1h4C18.5,7,19,7.5,19,8z"/>
</g>
<g id="Layer_3">
	<path class="st2" d="M24,13v11c0,1.7-1.3,3-3,3H11c-1.7,0-3-1.3-3-3V13h2v11c0,0.5,0.5,1,1,1h10c0.5,0,1-0.5,1-1V13H24z"/>
	<rect x="13" y="14" class="st2" width="2" height="9"/>
	<rect x="17" y="14" class="st2" width="2" height="9"/>
	<rect x="6" y="9" class="st2" width="20" height="2"/>
	<path class="st2" d="M20,7v2h-2V7h-4v2h-2V7c0-1.1,0.9-2,2-2h4C19.1,5,20,5.9,20,7z"/>
</g>
</svg>
