<?xml version="1.0" encoding="utf-8"?>
<!-- Generator: Adobe Illustrator 26.0.0, SVG Export Plug-In . SVG Version: 6.00 Build 0)  -->
<svg version="1.1" id="Layer_1" xmlns="http://www.w3.org/2000/svg" xmlns:xlink="http://www.w3.org/1999/xlink" x="0px" y="0px"
	 viewBox="0 0 24 24" style="enable-background:new 0 0 24 24;" xml:space="preserve">
<style type="text/css">
	.st0{display:none;}
	.st1{display:inline;}
	.st2{fill:#FFFFFF;}
</style>
<g id="Layer_2_00000042713515920800477430000016061310955123938189_" class="st0">
	<path class="st1" d="M19,8v11c0,1.1-0.9,2-2,2H7c-1.1,0-2-0.9-2-2V8h1v11c0,0.5,0.5,1,1,1h10c0.5,0,1-0.5,1-1V8H19z"/>
	<rect x="9" y="10" class="st1" width="1" height="7"/>
	<rect x="14" y="10" class="st1" width="1" height="7"/>
	<rect x="3" y="6" class="st1" width="18" height="1"/>
	<path class="st1" d="M15,4v2h-1V4h-4v2H9V4c0-0.5,0.5-1,1-1h4C14.5,3,15,3.5,15,4z"/>
</g>
<g id="Layer_3">
	<path class="st2" d="M19,9v8c0,1.7-1.3,3-3,3H8c-1.7,0-3-1.3-3-3V9h2v8c0,0.5,0.5,1,1,1h8c0.5,0,1-0.5,1-1V9H19z"/>
	<rect x="9" y="10" class="st2" width="2" height="6"/>
	<rect x="13" y="10" class="st2" width="2" height="6"/>
	<rect x="4" y="6" class="st2" width="16" height="2"/>
	<path class="st2" d="M16,5v1h-2V5h-4v1H8V5c0-1.1,0.9-2,2-2h4C15.1,3,16,3.9,16,5z"/>
</g>
</svg>
