<?xml version="1.0" encoding="UTF-8" standalone="no"?>
<!-- Generator: Adobe Illustrator 26.0.0, SVG Export Plug-In . SVG Version: 6.00 Build 0)  -->

<svg
   version="1.1"
   id="Layer_1"
   x="0px"
   y="0px"
   viewBox="0 0 24 24"
   style="enable-background:new 0 0 24 24;"
   xml:space="preserve"
   sodipodi:docname="delete_small.svg"
   inkscape:version="1.3 (0e150ed6c4, 2023-07-21)"
   xmlns:inkscape="http://www.inkscape.org/namespaces/inkscape"
   xmlns:sodipodi="http://sodipodi.sourceforge.net/DTD/sodipodi-0.dtd"
   xmlns="http://www.w3.org/2000/svg"
   xmlns:svg="http://www.w3.org/2000/svg"><defs
   id="defs6"><inkscape:path-effect
     effect="bool_op"
     operand-path="#rect14"
     id="path-effect18"
     is_visible="true"
     lpeversion="1"
     operation="diff"
     swap-operands="false"
     filltype-this="oddeven"
     filter=""
     filltype-operand="from-curve" /><inkscape:path-effect
     effect="bool_op"
     operand-path="#rect13"
     id="path-effect17"
     is_visible="true"
     lpeversion="1.2"
     operation="union"
     swap-operands="false"
     filltype-this="from-curve"
     filter=""
     filltype-operand="from-curve" /><inkscape:path-effect
     effect="bool_op"
     operand-path=""
     id="path-effect16"
     is_visible="true"
     lpeversion="1.2"
     operation="diff"
     swap-operands="false"
     filltype-this="from-curve"
     filter=""
     filltype-operand="from-curve" /><inkscape:path-effect
     effect="bool_op"
     operand-path=""
     id="path-effect15"
     is_visible="true"
     lpeversion="1"
     operation="diff"
     swap-operands="false"
     filltype-this="from-curve"
     filter=""
     filltype-operand="from-curve" /><filter
     id="selectable_hidder_filter"
     width="1"
     height="1"
     x="0"
     y="0"
     style="color-interpolation-filters:sRGB;"
     inkscape:label="LPE boolean visibility"><feComposite
       id="boolops_hidder_primitive"
       result="composite1"
       operator="arithmetic"
       in2="SourceGraphic"
       in="BackgroundImage" /></filter><inkscape:path-effect
     effect="bool_op"
     operand-path=""
     id="path-effect14"
     is_visible="true"
     lpeversion="1"
     operation="union"
     swap-operands="false"
     filltype-this="from-curve"
     filter=""
     filltype-operand="from-curve" /></defs><sodipodi:namedview
   id="namedview6"
   pagecolor="#505050"
   bordercolor="#eeeeee"
   borderopacity="1"
   inkscape:showpageshadow="0"
   inkscape:pageopacity="0"
   inkscape:pagecheckerboard="0"
   inkscape:deskcolor="#505050"
   showgrid="true"
   inkscape:zoom="27.75"
   inkscape:cx="12.018018"
   inkscape:cy="12"
   inkscape:window-width="1600"
   inkscape:window-height="868"
   inkscape:window-x="0"
   inkscape:window-y="32"
   inkscape:window-maximized="1"
   inkscape:current-layer="Layer_1"><inkscape:grid
     id="grid6"
     units="px"
     originx="0"
     originy="0"
     spacingx="1"
     spacingy="1"
     empcolor="#0099e5"
     empopacity="0.30196078"
     color="#0099e5"
     opacity="0.14902"
     empspacing="8"
     dotted="false"
     gridanglex="30"
     gridanglez="30"
     visible="true" /></sodipodi:namedview>&#10;<style
   type="text/css"
   id="style1">&#10;	.st0{display:none;}&#10;	.st1{display:inline;}&#10;	.st2{fill:#FFFFFF;}&#10;</style>&#10;&#10;<path
   style="fill:#ffffff;fill-opacity:1;stroke:#ffffff;stroke-width:2;stroke-linecap:round;stroke-linejoin:round;stroke-dashoffset:16"
   d="M 5,7 H 19"
   id="path7"
   sodipodi:nodetypes="cc" /><path
   id="rect11"
   style="fill:#ffffff;fill-opacity:1;fill-rule:nonzero;stroke:none;stroke-width:2;stroke-linecap:round;stroke-linejoin:round;stroke-dashoffset:16"
   d="M 10,3 C 8.8920011,3 8,3.8920011 8,5 v 1 c 0,1.1079989 0.8920011,2 2,2 h 4 c 1.107999,0 2,-0.8920011 2,-2 V 5 C 16,3.8920011 15.107999,3 14,3 Z m 0,2 h 4 v 2.9824219 h -4 z" /><rect
   style="display:inline;fill:none;fill-opacity:1;fill-rule:nonzero;stroke:none;stroke-width:2;stroke-linecap:round;stroke-linejoin:round;stroke-dashoffset:16"
   id="rect13"
   width="12"
   height="5"
   x="6"
   y="14"
   rx="2"
   ry="2"
   sodipodi:type="rect"
   transform="translate(0,1)" />&#10;<path
   id="path2"
   style="fill:#ffffff;stroke-width:2;stroke-linecap:round;stroke-linejoin:round;stroke-dashoffset:16"
   d="m 6,9 v 9 c 0,0.06925 0.00296,0.137681 0.00977,0.205078 0.0068,0.0674 0.017973,0.134004 0.03125,0.199219 0.013277,0.06521 0.029407,0.128704 0.048828,0.191406 0.019421,0.0627 0.041172,0.123735 0.066406,0.183594 0.025234,0.05986 0.053267,0.119095 0.083984,0.175781 0.030718,0.05669 0.063738,0.110879 0.099609,0.164063 0.035871,0.05318 0.07454,0.104947 0.1152343,0.154297 0.040694,0.04935 0.083719,0.09739 0.1289063,0.142578 0.045187,0.04519 0.093228,0.08821 0.1425781,0.128906 0.04935,0.04069 0.1011135,0.07936 0.1542969,0.115234 0.053183,0.03587 0.1073762,0.06889 0.1640625,0.09961 0.056686,0.03072 0.1159223,0.05875 0.1757812,0.08398 0.059859,0.02523 0.1208919,0.04698 0.1835938,0.06641 0.062702,0.01942 0.1261919,0.03555 0.1914062,0.04883 0.065215,0.01328 0.1318217,0.02445 0.1992188,0.03125 C 7.8623155,19.997036 7.9307505,20 8,20 h 8 c 0.06925,0 0.137681,-0.003 0.205078,-0.0098 0.0674,-0.0068 0.134004,-0.01797 0.199219,-0.03125 0.06521,-0.01328 0.128704,-0.02941 0.191406,-0.04883 0.0627,-0.01942 0.123735,-0.04117 0.183594,-0.06641 0.05986,-0.02523 0.119095,-0.05327 0.175781,-0.08398 0.05669,-0.03072 0.110879,-0.06374 0.164063,-0.09961 0.05318,-0.03587 0.104947,-0.07454 0.154297,-0.115234 0.04935,-0.04069 0.09739,-0.08372 0.142578,-0.128906 0.04519,-0.04519 0.08821,-0.09323 0.128906,-0.142578 0.04069,-0.04935 0.07936,-0.101114 0.115234,-0.154297 0.03587,-0.05318 0.06889,-0.107377 0.09961,-0.164063 0.03072,-0.05669 0.05875,-0.115922 0.08398,-0.175781 0.02523,-0.05986 0.04698,-0.120892 0.06641,-0.183594 0.01942,-0.0627 0.03555,-0.126192 0.04883,-0.191406 0.01328,-0.06521 0.02445,-0.131822 0.03125,-0.199219 C 17.997036,18.137717 18,18.06925 18,18 V 9 Z m 4,2 c 0.553999,0 1,0.446001 1,1 v 5 c 0,0.553999 -0.446001,1 -1,1 -0.5539994,0 -1,-0.446001 -1,-1 v -5 c 0,-0.553999 0.4460006,-1 1,-1 z m 4,0 c 0.553998,0 1,0.446002 1,1 v 5 c 0,0.553998 -0.446002,1 -1,1 -0.553998,0 -1,-0.446002 -1,-1 v -5 c 0,-0.553998 0.446002,-1 1,-1 z"
   sodipodi:nodetypes="cscssssssscssscsssssssccssscssscscsccssssssssssssss" /></svg>
