<?xml version="1.0" encoding="utf-8"?>
<!-- Generator: Adobe Illustrator 26.0.0, SVG Export Plug-In . SVG Version: 6.00 Build 0)  -->
<svg version="1.1" id="Layer_2_00000052789812727677281470000001206288968114730117_"
	 xmlns="http://www.w3.org/2000/svg" xmlns:xlink="http://www.w3.org/1999/xlink" x="0px" y="0px" viewBox="0 0 24 24"
	 style="enable-background:new 0 0 24 24;" xml:space="preserve">
<style type="text/css">
	.st0{fill:#FFFFFF;}
</style>
<path class="st0" d="M19,9H5c-0.6,0-1,0.4-1,1v8c0,0.6,0.4,1,1,1h14c0.6,0,1-0.4,1-1v-8C20,9.4,19.6,9,19,9z"/>
<path class="st0" d="M4,6h15c0.6,0,1,0.4,1,1v1H4V6z"/>
<path class="st0" d="M10,6H4V5c0-0.6,0.4-1,1-1h4c0.6,0,1,0.4,1,1V6z"/>
</svg>
